<mxfile host="app.diagrams.net" modified="2024-07-15T14:47:37.606Z" agent="Mozilla/5.0 (Macintosh; Intel Mac OS X 10_15_7) AppleWebKit/537.36 (KHTML, like Gecko) Chrome/126.0.0.0 Safari/537.36" version="24.6.5" etag="kTTEU92cDbpIzwWJxGZb" type="github">
  <diagram name="Page-1" id="c9VBLgekkGXiUruyrMA8">
    <mxGraphModel>
      <root>
        <mxCell id="0" />
        <mxCell id="1" parent="0" />
      </root>
    </mxGraphModel>
  </diagram>
</mxfile>
